:SAMPLES-PER-SECOND 30
:FULLY-SPECIFIED
:DEGREES
62
root  -4.83887 40.0273 -5.45319 179.062 -82.9828 174.529
RightUpLeg  -2.73575 -14.4847 -12.4213
RightLeg  51.8792 -6.69921 -9.42954
RightFoot  4.26307 -1.23578 9.21603
RightToes  0.00048216 0.542163 -0.142577
Spine  6.36546 4.92118 7.88454
Spine1  13.7098 9.58738 -12.3676
HEad  -1.85364 -8.49967 -1.49423
LeftShoulder1  6.89647 -11.459 -39.8484
LeftArm  -17.7966 28.094 -31.6173
LeftForeArm  29.4495 -18.2021 -2.88708
LeftHand  -0.25398 0.0180481 5.50724
RightShoulder  2.87857 6.6059 22.2112
RightArm  -23.8465 46.1376 48.8438
RightForeArm  108.923 80.0242 100.253
RightHand  -1.05491 0.182282 -21.9082
LeftUpLeg  -9.32193 9.04802 -0.0303728
LeftLeg  7.99404 14.146 -3.80254
LeftFoot  6.67553 -1.40016 8.55672
LeftToes  1.06246e-005 4.65855e-005 -8.18503e-006
63
root  -5.45146 40.1876 -5.3365 174.975 -83.0266 178.617
RightUpLeg  -4.90398 -14.7143 -11.9058
RightLeg  49.4659 -6.89877 -8.92029
RightFoot  2.61819 -1.10948 9.1941
RightToes  0.00048216 0.542163 -0.142577
Spine  6.82154 4.51668 8.1935
Spine1  13.7852 9.27851 -12.6557
HEad  -1.70447 -7.67854 -1.47154
LeftShoulder1  6.85801 -11.5677 -39.2909
LeftArm  -17.3784 26.3736 -31.9323
LeftForeArm  29.7113 -20.0206 -3.04863
LeftHand  -0.25398 0.0180481 5.50724
RightShoulder  2.72934 6.57475 20.7262
RightArm  -21.3627 48.4148 49.2832
RightForeArm  67.8056 78.6199 57.289
RightHand  -0.359186 -3.38621 -17.7369
LeftUpLeg  -8.10656 8.04949 0.449349
LeftLeg  7.57323 14.969 -3.97525
LeftFoot  6.16199 -1.38634 8.74239
LeftToes  1.06246e-005 4.65855e-005 -8.18503e-006
64
root  -5.99931 40.2919 -5.26389 173.529 -82.933 180
RightUpLeg  -6.43575 -14.2306 -11.6928
RightLeg  44.6621 -6.74158 -7.39242
RightFoot  1.28189 -1.05752 9.62383
RightToes  0.00048216 0.542163 -0.142577
Spine  7.8108 4.3157 8.59106
Spine1  13.306 9.41784 -13.8529
HEad  -1.7333 -7.5937 -0.66017
LeftShoulder1  6.87122 -11.7406 -38.8821
LeftArm  -16.6224 24.3098 -30.8941
LeftForeArm  32.0734 -23.0952 -3.32363
LeftHand  -0.25398 0.0180481 5.50724
RightShoulder  2.58364 6.44033 19.5505
RightArm  -19.7142 49.0795 49.406
RightForeArm  55.3258 75.8979 41.1281
RightHand  0.209486 -7.86392 -10.8489
LeftUpLeg  -7.02699 7.23543 0.729601
LeftLeg  7.35716 15.7136 -4.22458
LeftFoot  5.55714 -1.32948 8.70295
LeftToes  1.06246e-005 4.65855e-005 -8.18503e-006
65
root  -6.52982 40.3512 -5.26053 173.906 -83.4802 179.934
RightUpLeg  -7.27622 -14.1244 -11.7867
RightLeg  37.7647 -6.73301 -5.82954
RightFoot  0.037933 -1.00559 10.0669
RightToes  0.00048216 0.542163 -0.142577
Spine  8.48118 4.0813 8.4893
Spine1  12.7233 9.39231 -14.8828
HEad  -2.15138 -7.99357 0.284512
LeftShoulder1  6.91109 -11.9015 -38.6801
LeftArm  -17.3301 22.5702 -29.2329
LeftForeArm  36.5531 -27.8464 -4.04103
LeftHand  -0.25398 0.0180481 5.50724
RightShoulder  2.54251 6.35586 19.3412
RightArm  -18.7494 48.1697 50.3232
RightForeArm  64.4213 77.5003 48.6986
RightHand  0.191285 -8.41718 -9.41877
LeftUpLeg  -6.571 6.70321 0.630649
LeftLeg  7.49331 15.6271 -4.31638
LeftFoot  4.62913 -1.23439 8.58125
LeftToes  1.06246e-005 4.65855e-005 -8.18503e-006
66
root  -7.06104 40.3836 -5.33084 174.733 -84.9608 179.829
RightUpLeg  -7.3359 -14.5715 -12.0181
RightLeg  29.3147 -6.76432 -4.33307
RightFoot  -0.744946 -0.913009 9.76382
RightToes  0.00048216 0.542163 -0.142577
Spine  8.31188 3.64593 7.6961
Spine1  12.5486 8.81341 -14.8891
HEad  -2.65362 -8.23846 0.484924
LeftShoulder1  6.99867 -12.0945 -38.6867
LeftArm  -19.0064 21.4905 -27.6859
LeftForeArm  40.4126 -33.6227 -5.16849
LeftHand  -0.25398 0.0180481 5.50724
RightShoulder  2.65308 6.50611 20.1068
RightArm  -17.7658 47.2317 51.9853
RightForeArm  90.2007 80.2345 77.6586
RightHand  -0.124077 -4.81584 -15.4545
LeftUpLeg  -6.84539 6.32625 0.287737
LeftLeg  8.03285 14.5464 -4.19334
LeftFoot  3.76968 -1.15633 8.5283
LeftToes  1.06246e-005 4.65855e-005 -8.18503e-006
67
root  -7.57236 40.3976 -5.45561 178.892 -86.8548 176.366
RightUpLeg  -6.65982 -14.5951 -12.4959
RightLeg  20.5366 -6.59049 -2.88294
RightFoot  -1.12679 -0.810966 8.97635
RightToes  0.00048216 0.542163 -0.142577
Spine  7.51951 3.1416 6.2817
Spine1  13.0248 7.87361 -13.8117
HEad  -2.73454 -7.98519 -0.351481
LeftShoulder1  7.06926 -12.2838 -38.6009
LeftArm  -20.5647 20.7304 -26.8338
LeftForeArm  41.9017 -39.0525 -6.48517
LeftHand  -0.25398 0.0180481 5.50724
RightShoulder  2.82346 6.86591 20.8906
RightArm  -15.982 47.966 53.4171
RightForeArm  109.5 80.184 101.424
RightHand  -0.80211 -0.825632 -20.7943
LeftUpLeg  -7.24764 6.056 -0.181012
LeftLeg  8.70658 13.0059 -4.05772
LeftFoot  3.12004 -1.10086 8.51044
LeftToes  1.06246e-005 4.65855e-005 -8.18503e-006
68
root  -8.03024 40.3988 -5.59869 -162.797 -88.2716 158.364
RightUpLeg  -5.57434 -13.2626 -13.4267
RightLeg  12.6418 -6.02134 -1.29025
RightFoot  -0.947392 -0.841049 9.14928
RightToes  0.00048216 0.542163 -0.142577
Spine  6.62543 2.81662 4.97017
Spine1  13.9419 7.22069 -12.7936
HEad  -2.14835 -7.54753 -1.55992
LeftShoulder1  6.9898 -12.3391 -37.9688
LeftArm  -21.5852 19.5636 -26.8073
LeftForeArm  41.9056 -43.2084 -7.71205
LeftHand  -0.25398 0.0180481 5.50724
RightShoulder  2.80441 7.02927 20.2439
RightArm  -13.0106 51.1566 53.9515
RightForeArm  87.3795 79.9498 81.4681
RightHand  -0.847913 -0.514179 -19.9051
LeftUpLeg  -7.14143 5.79112 -0.722009
LeftLeg  9.12379 11.8684 -4.0315
LeftFoot  2.43965 -1.03285 8.40729
LeftToes  1.06246e-005 4.65855e-005 -8.18503e-006
69
root  -8.42381 40.3963 -5.7395 -130.365 -88.5365 125.948
RightUpLeg  -4.68848 -11.5856 -14.5084
RightLeg  6.3798 -3.972 0.422158
RightFoot  0.95257 -1.1412 10.5826
RightToes  0.00048216 0.542163 -0.142577
Spine  5.99216 2.8319 4.71085
Spine1  14.6988 7.43928 -13.2398
HEad  -0.990178 -7.38047 -2.34048
LeftShoulder1  6.77585 -12.2645 -36.8614
LeftArm  -22.3171 17.8249 -26.9689
LeftForeArm  42.3682 -46.4801 -8.78383
LeftHand  -0.25398 0.0180481 5.50724
RightShoulder  2.42568 6.52537 17.5874
RightArm  -8.0601 56.5593 53.7751
RightForeArm  42.1822 73.1399 36.3224
RightHand  -0.295449 -3.30795 -14.7428
LeftUpLeg  -6.55774 5.36416 -1.23915
LeftLeg  9.18448 11.7203 -4.02755
LeftFoot  1.70294 -0.938974 8.10691
LeftToes  1.06246e-005 4.65855e-005 -8.18503e-006
70
root  -8.77043 40.4095 -5.88832 -118.598 -87.9698 114.214
RightUpLeg  -4.56535 -11.6465 -15.0343
RightLeg  2.48306 0.11154 1.56511
RightFoot  4.78004 -1.55866 11.2522
RightToes  0.00048216 0.542163 -0.142577
Spine  5.76492 3.17493 5.62466
Spine1  14.743 8.49192 -15.2428
HEad  0.308648 -7.50136 -2.50771
LeftShoulder1  6.59578 -12.2089 -35.896
LeftArm  -23.1067 16.2188 -26.5205
LeftForeArm  44.1678 -49.9431 -9.98873
LeftHand  -0.25398 0.0180481 5.50724
RightShoulder  1.82228 5.32837 13.6973
RightArm  1.22314 62.8594 54.4123
RightForeArm  23.2476 57.5068 15.5251
RightHand  0.0327365 -6.384 -8.02343
LeftUpLeg  -5.8566 4.86367 -1.62335
LeftLeg  8.8903 12.3497 -4.0406
LeftFoot  1.18439 -0.837907 7.55822
LeftToes  1.06246e-005 4.65855e-005 -8.18503e-006
71
root  -9.09321 40.4528 -6.06536 -119.548 -87.2945 115.382
RightUpLeg  -5.25043 -11.924 -14.9248
RightLeg  1.50895 2.61303 1.95105
RightFoot  8.22568 -1.58705 9.52075
RightToes  0.00048216 0.542163 -0.142577
Spine  5.89057 3.64887 6.9214
Spine1  14.0979 9.75696 -17.6802
HEad  1.03786 -7.67358 -2.20324
LeftShoulder1  6.54128 -12.243 -35.4684
LeftArm  -23.9021 15.4825 -25.365
LeftForeArm  46.5616 -53.9474 -11.6037
LeftHand  -0.25398 0.0180481 5.50724
RightShoulder  1.27656 3.97745 9.77984
RightArm  16.4327 67.5765 58.2729
RightForeArm  20.4566 42.7634 8.7684
RightHand  -0.00834444 -7.26016 -1.91314
LeftUpLeg  -5.17327 4.51511 -1.85026
LeftLeg  8.16127 13.0264 -4.20983
LeftFoot  0.982041 -0.745012 6.83798
LeftToes  1.06246e-005 4.65855e-005 -8.18503e-006
72
root  -9.41013 40.5107 -6.27489 -116.119 -86.8157 112.317
RightUpLeg  -6.15085 -11.7312 -14.5413
RightLeg  2.60773 2.1601 1.67942
RightFoot  9.08197 -1.18521 6.89561
RightToes  0.00048216 0.542163 -0.142577
Spine  6.11432 3.97175 7.83083
Spine1  13.2805 10.6301 -19.5918
HEad  0.665253 -7.82567 -1.52714
LeftShoulder1  6.57391 -12.3121 -35.4923
LeftArm  -24.5596 15.6705 -24.0435
LeftForeArm  48.3335 -57.6787 -13.4671
LeftHand  -0.25398 0.0180481 5.50724
RightShoulder  0.999278 3.28343 7.20693
RightArm  30.8204 68.3949 63.4352
RightForeArm  22.7489 34.875 6.43352
RightHand  -0.0552386 -6.09161 1.74467
LeftUpLeg  -4.55572 4.29764 -1.96129
LeftLeg  7.2221 13.2104 -4.48966
LeftFoot  0.872143 -0.658744 6.1015
LeftToes  1.06246e-005 4.65855e-005 -8.18503e-006
